<svg width="16" height="16" viewBox="0 0 16 16" fill="none" xmlns="http://www.w3.org/2000/svg">
<g clip-path="url(#clip0_536_14169)">
<path d="M8.2337 3.46736C8.18998 3.42563 8.13181 3.40234 8.07132 3.40234C8.01082 3.40234 7.95265 3.42563 7.90894 3.46736L2.5031 8.61979C2.48014 8.64171 2.46187 8.66804 2.44941 8.69719C2.43694 8.72635 2.43053 8.75773 2.43057 8.78942L2.42969 13.6252C2.42969 13.8738 2.52868 14.1123 2.7049 14.2881C2.88112 14.4639 3.12012 14.5627 3.36932 14.5627H6.19116C6.31577 14.5627 6.43527 14.5133 6.52338 14.4254C6.61148 14.3375 6.66098 14.2182 6.66098 14.0939V10.1095C6.66098 10.0474 6.68573 9.98777 6.72979 9.94381C6.77384 9.89986 6.83359 9.87517 6.89589 9.87517H9.24498C9.30728 9.87517 9.36703 9.89986 9.41109 9.94381C9.45514 9.98777 9.47989 10.0474 9.47989 10.1095V14.0939C9.47989 14.2182 9.52939 14.3375 9.61749 14.4254C9.7056 14.5133 9.8251 14.5627 9.94971 14.5627H12.7704C13.0196 14.5627 13.2586 14.4639 13.4348 14.2881C13.611 14.1123 13.71 13.8738 13.71 13.6252V8.78942C13.71 8.75773 13.7036 8.72635 13.6912 8.69719C13.6787 8.66804 13.6604 8.64171 13.6375 8.61979L8.2337 3.46736Z" fill="white"/>
<path d="M14.9685 7.65283L12.7721 5.55635V2.375C12.7721 2.25068 12.7226 2.13145 12.6345 2.04354C12.5464 1.95564 12.4269 1.90625 12.3023 1.90625H10.8928C10.7682 1.90625 10.6487 1.95564 10.5606 2.04354C10.4725 2.13145 10.423 2.25068 10.423 2.375V3.3125L8.72229 1.69004C8.56314 1.52949 8.32647 1.4375 8.07071 1.4375C7.81584 1.4375 7.57975 1.52949 7.4206 1.69033L1.17496 7.65225C0.992323 7.82803 0.96942 8.11719 1.13562 8.30762C1.17735 8.35568 1.22845 8.39477 1.28581 8.42251C1.34317 8.45025 1.40559 8.46605 1.46926 8.46896C1.53293 8.47186 1.59653 8.46181 1.65619 8.43941C1.71584 8.41701 1.77031 8.38274 1.81627 8.33867L7.90921 2.52969C7.95293 2.48796 8.0111 2.46468 8.07159 2.46468C8.13209 2.46468 8.19026 2.48796 8.23397 2.52969L14.3275 8.33867C14.4173 8.42455 14.5375 8.47142 14.6618 8.46901C14.7862 8.46659 14.9045 8.41509 14.9908 8.32578C15.1711 8.13945 15.1561 7.83183 14.9685 7.65283Z" fill="white"/>
</g>
<defs>
<clipPath id="clip0_536_14169">
<rect width="15.0342" height="15" fill="white" transform="translate(0.554688 0.5)"/>
</clipPath>
</defs>
</svg>
